<?xml version="1.0" standalone="no"?>
<!DOCTYPE svg PUBLIC "-//W3C//DTD SVG 20010904//EN"
 "http://www.w3.org/TR/2001/REC-SVG-20010904/DTD/svg10.dtd">
<svg version="1.0" xmlns="http://www.w3.org/2000/svg"
 width="1920.000000pt" height="119.000000pt" viewBox="0 0 1920.000000 119.000000"
 preserveAspectRatio="xMidYMid meet">
<metadata>
Created by potrace 1.16, written by Peter Selinger 2001-2019
</metadata>
<g transform="translate(0.000000,119.000000) scale(0.100000,-0.100000)"
fill="#000000" stroke="none">
<path d="M0 1097 l0 -94 223 -6 c572 -16 1004 -92 1847 -327 936 -261 1259
-315 1850 -314 534 1 873 54 1880 293 718 170 970 222 1325 275 369 55 659 76
1030 76 642 0 1114 -51 2365 -255 1425 -232 2081 -296 2920 -282 767 13 1406
72 3100 287 1483 188 2109 250 2536 250 l124 0 0 95 0 95 -42 0 c-97 0 -497
-21 -683 -35 -414 -32 -846 -81 -1755 -196 -1050 -133 -1376 -172 -1790 -214
-1655 -167 -2423 -137 -4325 174 -269 44 -578 94 -685 110 -1031 158 -1768
194 -2476 121 -481 -50 -820 -114 -1694 -321 -990 -235 -1336 -289 -1851 -289
-534 0 -890 61 -1709 291 -698 197 -1078 277 -1535 324 -143 14 -490 35 -602
35 l-53 0 0 -93z"/>
</g>
</svg>
